<svg xmlns="http://www.w3.org/2000/svg" width="1024" height="500"><path d="M512,162L686,-12L512,-12Z" fill="#468d57" stroke="#468d57" stroke-width="1.51"/><path d="M512,162L686,162L686,-12Z" fill="#53a262" stroke="#53a262" stroke-width="1.51"/><path d="M686,-12L512,-186L512,-12Z" fill="#458057" stroke="#458057" stroke-width="1.51"/><path d="M686,-12L686,-186L512,-186Z" fill="#4f8260" stroke="#4f8260" stroke-width="1.51"/><path d="M686,-12L860,-12L686,-186Z" fill="#638872" stroke="#638872" stroke-width="1.51"/><path d="M686,162L860,-12L686,-12Z" fill="#669673" stroke="#669673" stroke-width="1.51"/><path d="M686,162L860,162L860,-12Z" fill="#74ab7e" stroke="#74ab7e" stroke-width="1.51"/><path d="M512,-186L337,-12L512,-12Z" fill="#39744e" stroke="#39744e" stroke-width="1.51"/><path d="M512,-12L337,-12L512,162Z" fill="#3a824e" stroke="#3a824e" stroke-width="1.51"/><path d="M337,-12L337,162L512,162Z" fill="#398b4f" stroke="#398b4f" stroke-width="1.51"/><path d="M337,162L512,337L512,162Z" fill="#33b74d" stroke="#33b74d" stroke-width="1.51"/><path d="M512,162L512,337L686,162Z" fill="#44c456" stroke="#44c456" stroke-width="1.51"/><path d="M686,162L686,337L860,162Z" fill="#6fce75" stroke="#6fce75" stroke-width="1.51"/><path d="M512,337L686,337L686,162Z" fill="#62d46b" stroke="#62d46b" stroke-width="1.51"/><path d="M860,-12L860,-186L686,-186Z" fill="#6c8a7b" stroke="#6c8a7b" stroke-width="1.51"/><path d="M512,-186L337,-186L337,-12Z" fill="#386c4d" stroke="#386c4d" stroke-width="1.51"/><path d="M686,337L860,337L860,162Z" fill="#88de89" stroke="#88de89" stroke-width="1.51"/><path d="M337,162L337,337L512,337Z" fill="#45bb57" stroke="#45bb57" stroke-width="1.51"/><path d="M860,-12L1034,-12L860,-186Z" fill="#7e8f8d" stroke="#7e8f8d" stroke-width="1.51"/><path d="M860,162L1034,-12L860,-12Z" fill="#839e8f" stroke="#839e8f" stroke-width="1.51"/><path d="M1034,162L1034,-12L860,162Z" fill="#92b49a" stroke="#92b49a" stroke-width="1.51"/><path d="M860,337L1034,162L860,162Z" fill="#91d793" stroke="#91d793" stroke-width="1.51"/><path d="M337,-186L163,-12L337,-12Z" fill="#355b4c" stroke="#355b4c" stroke-width="1.51"/><path d="M337,-12L163,-12L337,162Z" fill="#38694d" stroke="#38694d" stroke-width="1.51"/><path d="M337,162L163,162L337,337Z" fill="#399d4e" stroke="#399d4e" stroke-width="1.51"/><path d="M163,-12L163,162L337,162Z" fill="#39714e" stroke="#39714e" stroke-width="1.51"/><path d="M512,337L512,511L686,337Z" fill="#89de8a" stroke="#89de8a" stroke-width="1.51"/><path d="M686,337L686,511L860,337Z" fill="#aae8a8" stroke="#aae8a8" stroke-width="1.51"/><path d="M337,337L512,511L512,337Z" fill="#7cd280" stroke="#7cd280" stroke-width="1.51"/><path d="M512,511L686,511L686,337Z" fill="#aae7a9" stroke="#aae7a9" stroke-width="1.51"/><path d="M1034,-12L1034,-186L860,-186Z" fill="#879297" stroke="#879297" stroke-width="1.51"/><path d="M860,511L1034,337L860,337Z" fill="#c9f0c6" stroke="#c9f0c6" stroke-width="1.51"/><path d="M860,337L1034,337L1034,162Z" fill="#a9e7a7" stroke="#a9e7a7" stroke-width="1.51"/><path d="M337,-186L163,-186L163,-12Z" fill="#33534c" stroke="#33534c" stroke-width="1.51"/><path d="M686,511L860,511L860,337Z" fill="#c9f0c7" stroke="#c9f0c7" stroke-width="1.51"/><path d="M337,337L337,511L512,511Z" fill="#91ce94" stroke="#91ce94" stroke-width="1.51"/><path d="M163,162L163,337L337,337Z" fill="#47a058" stroke="#47a058" stroke-width="1.51"/><path d="M163,337L337,511L337,337Z" fill="#78b67f" stroke="#78b67f" stroke-width="1.51"/><path d="M1034,-12L1208,-12L1034,-186Z" fill="#8e949f" stroke="#8e949f" stroke-width="1.51"/><path d="M1034,162L1208,-12L1034,-12Z" fill="#93a3a0" stroke="#93a3a0" stroke-width="1.51"/><path d="M1208,162L1208,-12L1034,162Z" fill="#99b6a2" stroke="#99b6a2" stroke-width="1.51"/><path d="M1034,337L1208,162L1034,162Z" fill="#a4dca5" stroke="#a4dca5" stroke-width="1.51"/><path d="M860,511L1034,511L1034,337Z" fill="#e7f9e5" stroke="#e7f9e5" stroke-width="1.51"/><path d="M1034,337L1208,337L1208,162Z" fill="#b1e9b0" stroke="#b1e9b0" stroke-width="1.51"/><path d="M163,-186L-11,-12L163,-12Z" fill="#2f444a" stroke="#2f444a" stroke-width="1.51"/><path d="M163,-12L-11,-12L163,162Z" fill="#33504b" stroke="#33504b" stroke-width="1.51"/><path d="M163,162L-11,162L163,337Z" fill="#3a834e" stroke="#3a834e" stroke-width="1.51"/><path d="M-11,-12L-11,162L163,162Z" fill="#34594c" stroke="#34594c" stroke-width="1.51"/><path d="M337,511L512,685L512,511Z" fill="#a4dda5" stroke="#a4dda5" stroke-width="1.51"/><path d="M512,511L512,685L686,511Z" fill="#b1e9af" stroke="#b1e9af" stroke-width="1.51"/><path d="M686,511L686,685L860,511Z" fill="#d0f2ce" stroke="#d0f2ce" stroke-width="1.51"/><path d="M860,511L860,685L1034,511Z" fill="#edfaec" stroke="#edfaec" stroke-width="1.51"/><path d="M512,685L686,685L686,511Z" fill="#bcecb9" stroke="#bcecb9" stroke-width="1.51"/><path d="M-11,337L163,511L163,337Z" fill="#729b7d" stroke="#729b7d" stroke-width="1.51"/><path d="M163,337L163,511L337,511Z" fill="#8ab292" stroke="#8ab292" stroke-width="1.51"/><path d="M337,511L337,685L512,685Z" fill="#a2d3a4" stroke="#a2d3a4" stroke-width="1.51"/><path d="M1208,-12L1208,-186L1034,-186Z" fill="#8e949f" stroke="#8e949f" stroke-width="1.51"/><path d="M1034,511L1208,337L1034,337Z" fill="#dbf5d9" stroke="#dbf5d9" stroke-width="1.51"/><path d="M163,-186L-11,-186L-11,-12Z" fill="#2c3c49" stroke="#2c3c49" stroke-width="1.51"/><path d="M686,685L860,685L860,511Z" fill="#daf5d8" stroke="#daf5d8" stroke-width="1.51"/><path d="M-11,162L-11,337L163,337Z" fill="#468658" stroke="#468658" stroke-width="1.51"/><path d="M163,511L337,685L337,511Z" fill="#9dc0a3" stroke="#9dc0a3" stroke-width="1.51"/><path d="M1034,685L1208,511L1034,511Z" fill="#ffffff" stroke="#ffffff" stroke-width="1.51"/><path d="M1034,511L1208,511L1208,337Z" fill="#effbee" stroke="#effbee" stroke-width="1.51"/><path d="M860,685L1034,685L1034,511Z" fill="#f7fdf6" stroke="#f7fdf6" stroke-width="1.51"/><path d="M163,511L163,685L337,685Z" fill="#9ab7a2" stroke="#9ab7a2" stroke-width="1.51"/><path d="M-11,337L-11,511L163,511Z" fill="#829790" stroke="#829790" stroke-width="1.51"/><path d="M-11,511L163,685L163,511Z" fill="#94a4a0" stroke="#94a4a0" stroke-width="1.51"/><path d="M-11,-186L-185,-12L-11,-12Z" fill="#293648" stroke="#293648" stroke-width="1.51"/><path d="M-11,-12L-185,-12L-11,162Z" fill="#2e424a" stroke="#2e424a" stroke-width="1.51"/><path d="M-11,162L-185,162L-11,337Z" fill="#39744e" stroke="#39744e" stroke-width="1.51"/><path d="M-11,337L-185,337L-11,511Z" fill="#6d8b7c" stroke="#6d8b7c" stroke-width="1.51"/><path d="M-185,-12L-185,162L-11,162Z" fill="#33524c" stroke="#33524c" stroke-width="1.51"/><path d="M-11,-186L-185,-186L-185,-12Z" fill="#293648" stroke="#293648" stroke-width="1.51"/><path d="M-185,162L-185,337L-11,337Z" fill="#458057" stroke="#458057" stroke-width="1.51"/><path d="M1034,685L1208,685L1208,511Z" fill="#ffffff" stroke="#ffffff" stroke-width="1.51"/><path d="M-185,511L-11,685L-11,511Z" fill="#8e949f" stroke="#8e949f" stroke-width="1.51"/><path d="M-11,511L-11,685L163,685Z" fill="#919ba0" stroke="#919ba0" stroke-width="1.51"/><path d="M-185,337L-185,511L-11,511Z" fill="#7f908f" stroke="#7f908f" stroke-width="1.51"/><path d="M-185,511L-185,685L-11,685Z" fill="#8e949f" stroke="#8e949f" stroke-width="1.51"/></svg>